<?xml version="1.0" encoding="UTF-8"?>
<svg id="Layer_1" xmlns="http://www.w3.org/2000/svg" version="1.1" viewBox="47 33 331 95">
  <!-- Generator: Adobe Illustrator 30.2.1, SVG Export Plug-In . SVG Version: 2.1.1 Build 1)  -->
  <defs>
    <style>
      .st0 {
        fill: #fff;
      }
    </style>
  </defs>
  <path class="st0" d="M95.1,52.44h-32.29v15.45h27.99v11.42h-27.99v27.61h-14.7V40.09h46.99s0,12.35,0,12.35Z"/>
  <path class="st0" d="M117.75,106.92h-13.29V40.09h13.29v66.83Z"/>
  <path class="st0" d="M191.7,64.98h.19v-6.46h12.64v45.4c0,12.54-7.3,21.34-24.99,21.34-11.23,0-20.87-5.71-21.44-15.54h13.2c1.12,4.68,4.77,6.65,9.92,6.65,6.83,0,10.67-4.31,10.67-11.7v-6.65h-.19c-2.62,4.68-7.96,7.49-14.51,7.49-13.95,0-20.69-10.2-20.69-24.34,0-12.36,7.21-23.96,20.78-23.96,6.93,0,11.42,2.62,14.41,7.77h.01ZM180.56,95.5c7.21,0,11.33-5.9,11.33-13.48,0-6.74-2.06-14.79-11.42-14.79-6.83,0-10.67,5.8-10.67,13.76s3.09,14.51,10.76,14.51Z"/>
  <path class="st0" d="M229.53,65.26h.28c3-4.96,8.52-8.05,14.23-8.05,12.26,0,17.6,6.08,17.6,19.47v30.23h-13.29v-27.52c0-7.86-2.34-11.7-8.52-11.7-8.15,0-10.3,5.34-10.3,13.85v25.37h-13.29V40.09h13.29v25.18h0Z"/>
  <path class="st0" d="M290.3,58.53h9.74v8.89h-9.74v23.96c0,4.49,1.12,5.62,5.62,5.62,1.5,0,3-.09,4.12-.37v10.39c-2.25.37-5.24.47-7.86.47-10.2,0-15.16-3.09-15.16-11.7v-28.36h-8.05v-8.89h8.05v-14.51h13.29v14.51h-.01Z"/>
  <path class="st0" d="M352.7,70.97v25.65c0,3.84.47,8.33,1.69,10.3h-13.48c-.47-1.5-.84-3.09-.94-4.68-3.74,3.93-9.46,5.99-16.29,5.99-9.92,0-16.48-5.15-16.48-14.51,0-4.68,1.5-7.96,4.21-10.3,3.09-2.62,7.58-4.03,15.63-4.87,8.61-.94,12.36-1.68,12.36-5.99,0-5.52-4.03-6.46-8.52-6.46-5.52,0-8.42,2.25-8.89,7.3h-13.29c.56-10.58,9.27-16.19,22.84-16.19s21.16,4.77,21.16,13.76h0ZM328.65,99.34c7.11,0,10.76-3.84,10.76-10.95v-5.15c-1.22,1.12-3.56,1.78-8.05,2.34-6.83.84-10.86,2.34-10.86,7.58,0,3.84,2.34,6.18,8.15,6.18h0Z"/>
  <path class="st0" d="M377.54,106.92h-13.29V40.09h13.29v66.83Z"/>
  <path class="st0" d="M144.66,50.32c20.41-2.65-2.92-25.85-18.82,5.17,0,0,10.27-4.06,18.82-5.17Z"/>
  <path class="st0" d="M144.66,62.32c-4.15.54-8.71,1.77-12.3,2.9v41.7h13.29v-44.75c-.32.06-.65.11-.99.15h0Z"/>
</svg>